<?xml version="1.0" encoding="iso-8859-1"?>
<!-- Generator: Adobe Illustrator 19.0.0, SVG Export Plug-In . SVG Version: 6.00 Build 0)  -->
<svg version="1.1" id="Layer_1" xmlns="http://www.w3.org/2000/svg" xmlns:xlink="http://www.w3.org/1999/xlink" x="0px" y="0px"
	 viewBox="0 0 512 512" style="enable-background:new 0 0 512 512;" xml:space="preserve">
<path style="fill:#BFBFBF;" d="M288.337,450.021h-64.674V299.116h64.674V450.021z"/>
<g>
	<path style="fill:#999999;" d="M288.337,450.021h-21.558V299.116h21.558V450.021z"/>
	<path style="fill:#999999;" d="M385.347,460.8v32.337c0,5.953-4.826,10.779-10.779,10.779H137.432
		c-5.953,0-10.779-4.826-10.779-10.779V460.8c0-5.953,4.826-10.779,10.779-10.779h53.895v-32.337
		c0-5.953,4.826-10.779,10.779-10.779h107.789c5.953,0,10.779,4.826,10.779,10.779v32.337h53.895
		C380.522,450.021,385.347,454.847,385.347,460.8z"/>
</g>
<path style="fill:#6D6D6D;" d="M385.347,460.8v32.337c0,5.953-4.826,10.779-10.779,10.779h-43.116v-21.558
	c0-11.906-9.651-21.558-21.558-21.558H126.653c0-5.953,4.826-10.779,10.779-10.779h53.895v-21.558H256
	c5.953,0,10.779-4.826,10.779-10.779v-10.779h43.116c5.953,0,10.779,4.826,10.779,10.779v32.337h10.779h21.558h21.558
	C380.522,450.021,385.347,454.847,385.347,460.8z"/>
<path style="fill:#809DED;" d="M433.853,185.937c0,98.225-79.627,177.853-177.853,177.853S78.147,284.162,78.147,185.937
	S157.775,8.084,256,8.084S433.853,87.712,433.853,185.937z"/>
<path style="fill:#5D7EAC;" d="M433.853,185.937c0,98.225-79.627,177.853-177.853,177.853c-6.373,0-12.664-0.343-18.863-0.996
	c89.356-9.421,158.989-85.004,158.989-176.857S326.493,18.501,237.137,9.08c6.199-0.653,12.491-0.996,18.863-0.996
	C354.225,8.084,433.853,87.712,433.853,185.937z"/>
<path style="fill:#CEDEEC;" d="M396.126,185.937c0,77.39-62.737,140.126-140.126,140.126s-140.126-62.737-140.126-140.126
	S178.61,45.811,256,45.811S396.126,108.547,396.126,185.937z"/>
<path style="fill:#FFFFFF;" d="M396.126,185.937c0,77.39-62.737,140.126-140.126,140.126c-6.397,0-12.693-0.438-18.863-1.268
	c68.468-9.214,121.263-67.866,121.263-138.859S305.605,56.292,237.137,47.078c6.17-0.83,12.466-1.268,18.863-1.268
	C333.39,45.811,396.126,108.547,396.126,185.937z"/>
<path style="fill:#8BAD67;" d="M153.741,191.326c-0.093-1.785-0.141-3.582-0.141-5.389c0-56.554,45.846-102.4,102.4-102.4
	s102.4,45.846,102.4,102.4c0,1.808-0.049,3.604-0.141,5.389H153.741z"/>
<path style="fill:#FF6600;" d="M358.4,185.937c0,1.808-0.049,3.604-0.141,5.389H256V83.537
	C312.554,83.537,358.4,129.383,358.4,185.937z"/>
<path style="fill:#FFD34E;" d="M267.927,40.36l15.02,140.188h-53.895l15.02-140.188c0.653-6.095,5.797-10.718,11.927-10.718l0,0
	C262.13,29.642,267.274,34.264,267.927,40.36z"/>
<path style="fill:#809DED;" d="M288.337,185.937c0,17.86-14.477,32.337-32.337,32.337s-32.337-14.477-32.337-32.337
	S238.14,153.6,256,153.6S288.337,168.077,288.337,185.937z"/>
<path d="M320.674,183.242h29.604c-0.97-34.866-20.752-65.995-52.116-81.698c-3.993-1.998-5.608-6.855-3.61-10.848
	c1.998-3.993,6.853-5.609,10.847-3.61c37.679,18.863,61.085,56.741,61.085,98.85c0,1.912-0.052,3.866-0.152,5.809
	c-0.223,4.296-3.772,7.665-8.073,7.665h-37.585c-4.466,0-8.084-3.62-8.084-8.084C312.589,186.862,316.208,183.242,320.674,183.242z
	 M139.346,94.503c23.804-30.331,58.798-50.314,96.74-55.447c1.295-10.007,9.778-17.499,19.914-17.499
	c10.135,0,18.618,7.49,19.913,17.495c34.185,4.595,65.653,20.977,89.199,46.577c25.213,27.414,39.098,63.036,39.098,100.307
	c0,45.632-20.56,88.046-56.407,116.363c-1.484,1.172-3.252,1.741-5.007,1.741c-2.389,0-4.754-1.054-6.349-3.074
	c-2.768-3.503-2.172-8.587,1.331-11.355c31.943-25.232,50.263-63.02,50.263-103.675c0-65.548-46.78-119.916-110.345-130.281
	l11.488,107.227c4.56,6.543,7.236,14.492,7.236,23.054c0,22.289-18.132,40.421-40.421,40.421s-40.421-18.132-40.421-40.421
	c0-8.562,2.675-16.511,7.236-23.054l11.486-107.206c-32.269,5.38-61.852,22.837-82.237,48.81c-2.756,3.512-7.837,4.125-11.35,1.369
	C137.202,103.097,136.59,98.016,139.346,94.503z M240.611,148.56c4.745-1.961,9.945-3.044,15.389-3.044s10.644,1.083,15.389,3.044
	l-10.843-101.2c-0.011-0.082-0.019-0.164-0.027-0.247l-0.631-5.893c-0.213-1.991-1.886-3.493-3.889-3.493s-3.676,1.503-3.889,3.496
	L240.611,148.56z M231.747,185.937c0,13.373,10.88,24.253,24.253,24.253s24.253-10.879,24.253-24.253
	c0-13.373-10.88-24.253-24.253-24.253S231.747,172.563,231.747,185.937z M213.838,101.545c3.993-1.998,5.608-6.855,3.61-10.848
	c-1.998-3.993-6.855-5.61-10.847-3.61c-37.679,18.862-61.085,56.74-61.085,98.849c0,1.912,0.052,3.866,0.152,5.809
	c0.223,4.296,3.772,7.665,8.073,7.665h37.585c4.466,0,8.084-3.62,8.084-8.084c0-4.465-3.618-8.084-8.084-8.084h-29.604
	C162.693,148.377,182.474,117.247,213.838,101.545z M393.432,460.8v32.337c0,10.401-8.463,18.863-18.863,18.863h-32.337
	c-4.466,0-8.084-3.62-8.084-8.084s3.618-8.084,8.084-8.084h32.337c1.486,0,2.695-1.209,2.695-2.695V460.8
	c0-1.485-1.208-2.695-2.695-2.695H245.221c-4.466,0-8.084-3.62-8.084-8.084s3.618-8.084,8.084-8.084h67.368v-24.253
	c0-1.485-1.208-2.695-2.695-2.695H202.105c-1.486,0-2.695,1.209-2.695,2.695v24.253h13.474c4.466,0,8.084,3.62,8.084,8.084
	s-3.618,8.084-8.084,8.084h-75.453c-1.486,0-2.695,1.209-2.695,2.695v32.337c0,1.485,1.208,2.695,2.695,2.695h172.463
	c4.466,0,8.084,3.62,8.084,8.084S314.36,512,309.895,512H137.432c-10.401,0-18.863-8.463-18.863-18.863V460.8
	c0-10.401,8.463-18.863,18.863-18.863h45.811v-24.253c0-10.401,8.463-18.863,18.863-18.863h13.474v-31.372
	c-83.153-18.507-145.516-92.866-145.516-181.512C70.063,83.411,153.474,0,256,0s185.937,83.411,185.937,185.937
	c0,88.646-62.363,163.005-145.516,181.512v31.372h13.474c10.401,0,18.863,8.463,18.863,18.863v24.253h45.811
	C384.969,441.937,393.432,450.399,393.432,460.8z M256,355.705c93.611,0,169.768-76.158,169.768-169.768S349.611,16.168,256,16.168
	S86.232,92.326,86.232,185.937S162.389,355.705,256,355.705z M280.253,370.299c-7.938,1.038-16.036,1.575-24.253,1.575
	s-16.315-0.537-24.253-1.575v28.522h48.505V370.299z M318.99,320.133c4.04-1.899,5.775-6.715,3.876-10.756
	c-1.899-4.041-6.716-5.774-10.756-3.876c-17.61,8.28-36.488,12.479-56.11,12.479c-72.809,0-132.042-59.234-132.042-132.042
	c0-19.734,4.245-38.712,12.617-56.404c1.909-4.036,0.186-8.856-3.849-10.765c-4.035-1.908-8.856-0.186-10.765,3.849
	c-9.404,19.872-14.171,41.176-14.171,63.32c0,81.724,66.488,148.211,148.211,148.211
	C278.018,334.147,299.212,329.432,318.99,320.133z"/>
<g>
</g>
<g>
</g>
<g>
</g>
<g>
</g>
<g>
</g>
<g>
</g>
<g>
</g>
<g>
</g>
<g>
</g>
<g>
</g>
<g>
</g>
<g>
</g>
<g>
</g>
<g>
</g>
<g>
</g>
</svg>
