<?xml version="1.0" encoding="iso-8859-1"?>
<!-- Generator: Adobe Illustrator 19.0.0, SVG Export Plug-In . SVG Version: 6.00 Build 0)  -->
<svg version="1.1" id="Layer_1" xmlns="http://www.w3.org/2000/svg" xmlns:xlink="http://www.w3.org/1999/xlink" x="0px" y="0px"
	 viewBox="0 0 512 512" style="enable-background:new 0 0 512 512;" xml:space="preserve">
<g>
	<polygon style="fill:#4A4F53;" points="435.464,340.454 435.464,393.237 409.072,393.237 356.289,393.237 329.897,393.237 
		329.897,340.454 356.289,340.454 409.072,340.454 	"/>
	<polygon style="fill:#4A4F53;" points="308.784,171.546 308.784,224.33 282.392,224.33 229.608,224.33 203.217,224.33 
		203.217,171.546 229.608,171.546 282.392,171.546 	"/>
	<polygon style="fill:#4A4F53;" points="182.103,287.67 182.103,340.454 155.711,340.454 102.928,340.454 76.536,340.454 
		76.536,287.67 102.928,287.67 155.711,287.67 	"/>
</g>
<g>
	<rect x="229.608" y="60.701" style="fill:#7E8488;" width="52.784" height="110.845"/>
	<rect x="356.289" y="393.237" style="fill:#7E8488;" width="52.784" height="58.062"/>
	<rect x="356.289" y="60.701" style="fill:#7E8488;" width="52.784" height="279.753"/>
	<rect x="229.608" y="224.33" style="fill:#7E8488;" width="52.784" height="226.969"/>
	<rect x="102.928" y="340.454" style="fill:#7E8488;" width="52.784" height="110.845"/>
	<rect x="102.928" y="60.701" style="fill:#7E8488;" width="52.784" height="226.969"/>
</g>
<path style="fill:#F23222;" d="M182.103,340.454V287.67h-26.392V60.701h-52.784V287.67H76.536v52.784h26.392v110.845h52.784V340.454
	H182.103z M308.784,224.33v-52.784h-26.392V60.701h-52.783v110.845h-26.392v52.784h26.392v226.969h52.783V224.33H308.784z
	 M435.464,393.237v-52.784h-26.392V60.701h-52.784v279.753h-26.392v52.784h26.392v58.062h52.784v-58.062H435.464z M504.082,29.031
	v453.938c0,11.612-9.501,21.113-21.113,21.113H29.031c-11.612,0-21.113-9.501-21.113-21.113V29.031
	c0-11.612,9.501-21.113,21.113-21.113h453.938C494.581,7.918,504.082,17.419,504.082,29.031z"/>
<path style="fill:#C32B1C;" d="M412.812,393.237h-3.74v58.062h-52.784v-58.062h-26.392v-52.784h11.138
	c-21.039-18.289-40.667-38.143-58.644-59.458v170.304h-52.783V224.33h-26.392v-52.784h7.594
	c-24.873-50.568-41.986-105.618-49.936-163.629H29.031c-11.612,0-21.113,9.501-21.113,21.113v453.938
	c0,11.612,9.501,21.113,21.113,21.113h453.938c11.612,0,21.113-9.501,21.113-21.113v-45.093
	C472.099,425.824,441.554,410.867,412.812,393.237z M182.103,340.454h-26.392v110.845h-52.784V340.454H76.536V287.67h26.392V60.701
	h52.784V287.67h26.392V340.454z"/>
<g>
	<rect x="76.536" y="287.67" style="fill:#3D4145;" width="52.784" height="52.784"/>
	<rect x="203.217" y="171.546" style="fill:#3D4145;" width="52.784" height="52.784"/>
	<rect x="329.897" y="340.454" style="fill:#3D4145;" width="52.784" height="52.784"/>
</g>
<path d="M482.969,0H29.031C13.024,0,0,13.024,0,29.031v453.938C0,498.976,13.024,512,29.031,512h453.938
	C498.976,512,512,498.976,512,482.969V29.031C512,13.024,498.976,0,482.969,0z M496.165,482.969c0,7.277-5.919,13.196-13.196,13.196
	H29.031c-7.277,0-13.196-5.919-13.196-13.196V29.031c0-7.277,5.919-13.196,13.196-13.196h453.938
	c7.277,0,13.196,5.919,13.196,13.196V482.969z"/>
<path d="M290.309,52.784h-68.619v110.845h-26.392v68.619h26.392v226.969h68.619V232.247h26.392v-68.619h-26.392V52.784z
	 M237.526,68.619h36.948v95.01h-36.948V68.619z M274.474,443.381h-36.948V232.247h36.948V443.381z M300.866,216.412h-89.732v-36.948
	h89.732V216.412z"/>
<path d="M416.99,52.784h-68.619v279.753h-26.392v68.619h26.392v58.062h68.619v-58.062h26.392v-68.619H416.99V52.784z
	 M364.206,68.619h36.948v263.918h-36.948V68.619z M401.155,443.381h-36.948v-42.227h36.948V443.381z M427.546,385.32h-89.732
	v-36.948h89.732V385.32z"/>
<path d="M163.629,52.784H95.01v226.969H68.619v68.619H95.01v110.845h68.619V348.371h26.392v-68.619h-26.392V52.784z M110.845,68.619
	h36.948v211.134h-36.948V68.619z M147.794,443.381h-36.948v-95.01h36.948V443.381z M174.186,332.536H84.454v-36.948h89.732V332.536z
	"/>
<g>
	<rect x="34.309" y="36.948" style="fill:#FFFFFF;" width="21.113" height="15.835"/>
	<rect x="456.577" y="36.948" style="fill:#FFFFFF;" width="21.113" height="15.835"/>
	<rect x="456.577" y="459.217" style="fill:#FFFFFF;" width="21.113" height="15.835"/>
	<rect x="34.309" y="459.217" style="fill:#FFFFFF;" width="21.113" height="15.835"/>
</g>
<g>
</g>
<g>
</g>
<g>
</g>
<g>
</g>
<g>
</g>
<g>
</g>
<g>
</g>
<g>
</g>
<g>
</g>
<g>
</g>
<g>
</g>
<g>
</g>
<g>
</g>
<g>
</g>
<g>
</g>
</svg>
